<svg width="80" height="71" viewBox="0 0 80 71" fill="none" xmlns="http://www.w3.org/2000/svg">
<g clip-path="url(#clip0_33_71)">
<path d="M65.7759 22.9786C64.9246 22.6876 64.0659 22.4181 63.2009 22.1702C63.3462 21.5788 63.48 20.9946 63.5988 20.4206C65.5481 10.9953 64.2738 3.40204 59.9209 0.901983C55.7475 -1.49473 48.9222 1.00439 42.0291 6.97969C41.3497 7.56963 40.6854 8.17658 40.0369 8.79995C39.6027 8.38543 39.1609 7.97895 38.7116 7.58073C31.4872 1.19177 24.2459 -1.50096 19.8978 1.00626C15.7281 3.41044 14.4934 10.5486 16.2484 19.4812C16.423 20.3659 16.6202 21.246 16.8397 22.1207C15.8147 22.4108 14.8256 22.7196 13.8791 23.0483C5.40906 25.9897 0 30.5992 0 35.3805C0 40.3186 5.80688 45.2718 14.6287 48.2751C15.344 48.5176 16.0651 48.7423 16.7916 48.949C16.5556 49.8911 16.3462 50.8396 16.1634 51.7933C14.4903 60.5709 15.7969 67.5404 19.9553 69.9293C24.2503 72.3964 31.4591 69.8608 38.4781 63.7492C39.0473 63.2523 39.6039 62.7414 40.1475 62.2169C40.8499 62.8919 41.571 63.5472 42.31 64.1822C49.1094 70.0096 55.8244 72.3628 59.9788 69.9673C64.2697 67.4931 65.6644 60.006 63.8538 50.8969C63.7111 50.1833 63.5512 49.4732 63.3741 48.7672C63.8803 48.6178 64.3772 48.4641 64.8616 48.3041C74.0328 45.2777 80 40.3846 80 35.3805C80 30.5817 74.4163 25.9411 65.7759 22.9786ZM63.7869 45.0732C63.3494 45.2173 62.9006 45.3564 62.4431 45.4918C61.4306 42.2992 60.0644 38.9046 58.3922 35.397C59.9878 31.9731 61.3016 28.6217 62.2856 25.45C63.1041 25.6859 63.8981 25.9346 64.6637 26.197C72.0669 28.7357 76.5825 32.4885 76.5825 35.3805C76.5825 38.4607 71.7056 42.4595 63.7869 45.0732ZM60.5013 51.558C61.3019 55.5857 61.4159 59.2275 60.8856 62.0746C60.4094 64.6329 59.4512 66.3383 58.2663 67.0215C55.7453 68.4751 50.3537 66.5857 44.5391 61.6018C43.8517 61.0115 43.1809 60.4022 42.5275 59.7747C44.7819 57.3192 47.0347 54.4646 49.2334 51.2941C53.1009 50.9523 56.7547 50.3933 60.0681 49.6304C60.2277 50.2694 60.3722 50.9121 60.5013 51.558ZM27.2738 66.7703C24.8106 67.6366 22.8487 67.6615 21.6628 66.9804C19.1394 65.5309 18.0903 59.9347 19.5212 52.4283C19.6913 51.5413 19.8861 50.6591 20.1053 49.7829C23.3822 50.505 27.0094 51.0242 30.8859 51.3373C33.0997 54.4397 35.4175 57.2911 37.7534 59.7881C37.257 60.2665 36.7488 60.7327 36.2294 61.1863C33.1253 63.8887 30.015 65.806 27.2738 66.7703ZM15.7344 45.0542C11.8334 43.726 8.61188 42.0001 6.40375 40.1166C4.41938 38.4243 3.41781 36.7438 3.41781 35.3805C3.41781 32.4789 7.76062 28.778 15.0041 26.2627C15.8831 25.9576 16.8031 25.6697 17.7578 25.3995C18.7591 28.6429 20.0722 32.0341 21.6569 35.4633C20.0516 38.9432 18.7197 42.3885 17.7087 45.6702C17.0457 45.481 16.3873 45.2756 15.7344 45.0542ZM19.6025 18.8273C18.0991 11.1743 19.0975 5.40128 21.6103 3.95235C24.2866 2.40911 30.2047 4.60942 36.4425 10.1262C36.8493 10.4868 37.2494 10.8547 37.6428 11.2297C35.3184 13.7157 33.0219 16.546 30.8278 19.63C27.0653 19.9774 23.4637 20.5351 20.1525 21.2825C19.9485 20.4689 19.7651 19.65 19.6025 18.8273ZM54.1109 27.3147C53.3288 25.9691 52.5177 24.6405 51.6781 23.3297C54.2306 23.6512 56.6763 24.0779 58.9728 24.5996C58.2834 26.8008 57.4241 29.102 56.4125 31.4614C55.6731 30.064 54.9058 28.6816 54.1109 27.3147ZM40.0384 13.6625C41.6147 15.3635 43.1934 17.2625 44.7463 19.3231C41.5963 19.1749 38.441 19.1743 35.2909 19.3212C36.8453 17.2797 38.4375 15.3831 40.0384 13.6625ZM25.8756 27.3381C25.0907 28.6939 24.3377 30.0678 23.6172 31.4586C22.6222 29.1076 21.7706 26.7959 21.0753 24.5635C23.3578 24.0549 25.7919 23.639 28.3281 23.3234C27.4792 24.6422 26.6615 25.981 25.8756 27.3381ZM28.4009 47.6797C25.7806 47.3883 23.31 46.994 21.0281 46.4991C21.7344 44.2269 22.6047 41.8659 23.6213 39.4645C24.3446 40.8564 25.1008 42.2311 25.8891 43.5875C26.6997 44.982 27.5391 46.3478 28.4009 47.6797ZM40.1328 57.3381C38.5128 55.5976 36.8972 53.6718 35.3194 51.6007C36.8512 51.6604 38.4128 51.6909 40 51.6909C41.6306 51.6909 43.2425 51.6545 44.8291 51.5842C43.2713 53.6926 41.6984 55.6212 40.1328 57.3381ZM56.4447 39.3419C57.5141 41.7697 58.4153 44.1182 59.1309 46.3515C56.8116 46.8788 54.3072 47.3034 51.6684 47.6187C52.514 46.2835 53.3328 44.9318 54.1244 43.5642C54.9292 42.1741 55.7028 40.7663 56.4447 39.3419ZM51.1641 41.8634C49.9522 43.9602 48.6723 46.0172 47.3262 48.0311C44.888 48.2031 42.4444 48.2885 40 48.2873C37.5103 48.2873 35.0887 48.2101 32.7569 48.0594C31.3757 46.0502 30.0713 43.9896 28.8466 41.8821C27.6276 39.7858 26.4892 37.6441 25.4334 35.4617C26.4866 33.2788 27.6217 31.1361 28.8366 29.0382L28.8363 29.0385C30.0506 26.9401 31.3446 24.8883 32.7153 22.8877C35.0944 22.7084 37.5341 22.615 39.9997 22.615C42.4766 22.615 44.9197 22.7093 47.2981 22.8898C48.655 24.8875 49.9407 26.9322 51.1528 29.0201C52.3717 31.1134 53.5219 33.2457 54.6016 35.4135C53.533 37.6034 52.3864 39.7548 51.1641 41.8634ZM58.2141 3.85088C60.8928 5.38976 61.9347 11.5954 60.2516 19.7333C60.1441 20.2525 60.0234 20.7814 59.8922 21.3177C56.5728 20.5544 52.9688 19.987 49.1953 19.6344C46.9972 16.5164 44.7194 13.6818 42.4328 11.2278C43.0321 10.6524 43.6456 10.092 44.2728 9.54698C50.1791 4.42765 55.6991 2.40631 58.2141 3.85088ZM40 28.265C43.9453 28.265 47.1437 31.4508 47.1437 35.3805C47.1437 39.3102 43.9453 42.4959 40 42.4959C36.0547 42.4959 32.8563 39.3102 32.8563 35.3805C32.8563 31.4508 36.0547 28.265 40 28.265Z" fill="#00D8FF"/>
</g>
<defs>
<clipPath id="clip0_33_71">
<rect width="80" height="70.9677" fill="white"/>
</clipPath>
</defs>
</svg>
