<svg width="80" height="80" viewBox="0 0 80 80" fill="none" xmlns="http://www.w3.org/2000/svg">
<g clip-path="url(#clip0_33_95)">
<path d="M0 0H80V80H0V0Z" fill="#F03E2F"/>
<path d="M24.6393 20.7269C24.6393 27.6007 28.96 31.6913 37.6106 33.8476L46.7768 35.9357C54.9637 37.7832 59.9487 42.3713 59.9487 49.8469C60.0095 53.1123 58.93 56.2966 56.8962 58.8519C56.8962 51.3938 52.9693 47.3644 43.4968 44.9407L34.4968 42.9301C27.2893 41.3144 21.7268 37.5426 21.7268 29.4226C21.6916 26.2789 22.7177 23.2152 24.6393 20.7269Z" fill="white"/>
<path d="M51.2638 48.0169C55.1738 50.4744 56.8875 53.9113 56.8875 58.8438C53.6519 62.9163 47.9663 65.2019 41.2844 65.2019C30.0363 65.2019 22.1644 59.7632 20.415 50.3113H31.2169C32.6075 54.6507 36.29 56.6613 41.205 56.6613C47.205 56.6613 51.1938 53.5163 51.2725 47.9994M30.2544 30.9175C28.4761 29.8821 27.0115 28.3842 26.0163 26.5832C25.0288 24.7943 24.5525 22.7683 24.6394 20.7269C27.7619 16.6882 33.1932 14.2225 39.8144 14.2225C51.2725 14.2225 57.9019 20.1682 59.5382 28.5375H49.1469C48.0013 25.2375 45.1325 22.6688 39.9019 22.6688C34.3132 22.6688 30.4994 25.865 30.2807 30.9175" fill="#F9B1AB"/>
</g>
<defs>
<clipPath id="clip0_33_95">
<rect width="80" height="80" fill="white"/>
</clipPath>
</defs>
</svg>
