<svg width="25" height="25" viewBox="0 0 25 25" fill="none" xmlns="http://www.w3.org/2000/svg">
<path d="M12.5977 16.4307C12.5977 16.5381 12.6807 16.626 12.7808 16.626H17.2974C17.3975 16.626 17.4805 16.5381 17.4805 16.4307V15.2588C17.4805 15.1514 17.3975 15.0635 17.2974 15.0635H12.7808C12.6807 15.0635 12.5977 15.1514 12.5977 15.2588V16.4307ZM7.83936 16.5796L12.5269 12.6489C12.6196 12.5708 12.6196 12.4268 12.5269 12.3486L7.83936 8.42041C7.81106 8.39635 7.77645 8.38091 7.73964 8.37593C7.70283 8.37095 7.66536 8.37664 7.63169 8.39232C7.59801 8.408 7.56955 8.43301 7.54967 8.46439C7.52979 8.49577 7.51933 8.53219 7.51953 8.56934V10.1001C7.51953 10.1587 7.54395 10.2124 7.59033 10.249L10.271 12.5L7.59033 14.751C7.56851 14.7692 7.55089 14.792 7.53867 14.8177C7.52645 14.8434 7.51992 14.8714 7.51953 14.8999V16.4307C7.51953 16.5967 7.7124 16.687 7.83936 16.5796ZM21.4844 2.73438H3.51562C3.0835 2.73438 2.73438 3.0835 2.73438 3.51562V21.4844C2.73438 21.9165 3.0835 22.2656 3.51562 22.2656H21.4844C21.9165 22.2656 22.2656 21.9165 22.2656 21.4844V3.51562C22.2656 3.0835 21.9165 2.73438 21.4844 2.73438ZM20.5078 20.5078H4.49219V4.49219H20.5078V20.5078Z" fill="#FFF8E7"/>
</svg>
